<svg width="21" height="20" viewBox="0 0 21 20" fill="none" xmlns="http://www.w3.org/2000/svg">
<g clip-path="url(#clip0_1_1382)">
<path d="M17.0947 3.81665C16.6767 3.39713 16.1799 3.06427 15.6329 2.83714C15.0859 2.61002 14.4995 2.4931 13.9072 2.4931C13.315 2.4931 12.7285 2.61002 12.1816 2.83714C11.6346 3.06427 11.1378 3.39713 10.7197 3.81665L10.0781 4.46665L9.43641 3.81665C9.01834 3.39713 8.52158 3.06427 7.97459 2.83714C7.42761 2.61002 6.84117 2.4931 6.24891 2.4931C5.65665 2.4931 5.07021 2.61002 4.52322 2.83714C3.97624 3.06427 3.47947 3.39713 3.06141 3.81665C1.29474 5.58332 1.18641 8.56665 3.41141 10.8333L10.0781 17.5L16.7447 10.8333C18.9697 8.56665 18.8614 5.58332 17.0947 3.81665Z" stroke="#878781" stroke-width="1.25" stroke-linecap="round" stroke-linejoin="round"/>
</g>
<defs>
<clipPath id="clip0_1_1382">
<rect width="20" height="20" fill="white" transform="translate(0.078125)"/>
</clipPath>
</defs>
</svg>
