<svg width="17" height="16" viewBox="0 0 17 16" fill="none" xmlns="http://www.w3.org/2000/svg">
<g clip-path="url(#clip0_11_9)">
<g clip-path="url(#clip1_11_9)">
<path d="M13.6758 3.05335C13.3414 2.71773 12.944 2.45144 12.5064 2.26974C12.0688 2.08804 11.5996 1.99451 11.1258 1.99451C10.652 1.99451 10.1829 2.08804 9.74528 2.26974C9.3077 2.45144 8.91028 2.71773 8.57583 3.05335L8.0625 3.57335L7.54916 3.05335C7.21471 2.71773 6.8173 2.45144 6.37971 2.26974C5.94212 2.08804 5.47297 1.99451 4.99916 1.99451C4.52535 1.99451 4.0562 2.08804 3.61862 2.26974C3.18103 2.45144 2.78362 2.71773 2.44916 3.05335C1.03583 4.46668 0.949163 6.85335 2.72916 8.66668L8.0625 14L13.3958 8.66668C15.1758 6.85335 15.0892 4.46668 13.6758 3.05335Z" stroke="#878781" stroke-width="1.33333" stroke-linecap="round" stroke-linejoin="round"/>
</g>
</g>
<defs>
<clipPath id="clip0_11_9">
<rect width="16" height="16" fill="white" transform="translate(0.0625)"/>
</clipPath>
<clipPath id="clip1_11_9">
<rect width="16" height="16" fill="white" transform="translate(0.0625)"/>
</clipPath>
</defs>
</svg>
