<svg width="17" height="16" viewBox="0 0 17 16" fill="none" xmlns="http://www.w3.org/2000/svg">
<g clip-path="url(#clip0_1_644)">
<path d="M14.6875 7.66669C14.6898 8.5466 14.4842 9.41461 14.0875 10.2C13.6171 11.1412 12.894 11.9328 11.9991 12.4862C11.1043 13.0396 10.073 13.3329 9.02083 13.3334C8.14092 13.3356 7.27291 13.1301 6.4875 12.7334L2.6875 14L3.95417 10.2C3.55745 9.41461 3.35187 8.5466 3.35417 7.66669C3.35457 6.61452 3.64791 5.58325 4.20131 4.68839C4.75472 3.79352 5.54634 3.0704 6.4875 2.60002C7.27291 2.20331 8.14092 1.99772 9.02083 2.00002H9.35417C10.7437 2.07668 12.0562 2.66319 13.0403 3.64726C14.0243 4.63132 14.6108 5.94379 14.6875 7.33335V7.66669Z" stroke="#878781" stroke-width="1.33333" stroke-linecap="round" stroke-linejoin="round"/>
</g>
<defs>
<clipPath id="clip0_1_644">
<rect width="16" height="16" fill="white" transform="translate(0.6875)"/>
</clipPath>
</defs>
</svg>
