<svg width="17" height="16" viewBox="0 0 17 16" fill="none" xmlns="http://www.w3.org/2000/svg">
<g clip-path="url(#clip0_11_16)">
<path d="M14.8125 7.66666C14.8148 8.54657 14.6092 9.41458 14.2125 10.2C13.7421 11.1412 13.019 11.9328 12.1241 12.4862C11.2293 13.0396 10.198 13.3329 9.14583 13.3333C8.26592 13.3356 7.39791 13.13 6.6125 12.7333L2.8125 14L4.07917 10.2C3.68245 9.41458 3.47687 8.54657 3.47917 7.66666C3.47957 6.61449 3.77291 5.58322 4.32631 4.68836C4.87972 3.79349 5.67134 3.07037 6.6125 2.59999C7.39791 2.20328 8.26592 1.99769 9.14583 1.99999H9.47917C10.8687 2.07665 12.1812 2.66316 13.1653 3.64723C14.1493 4.63129 14.7358 5.94376 14.8125 7.33332V7.66666Z" stroke="#878781" stroke-width="1.33333" stroke-linecap="round" stroke-linejoin="round"/>
</g>
<defs>
<clipPath id="clip0_11_16">
<rect width="16" height="16" fill="white" transform="translate(0.8125)"/>
</clipPath>
</defs>
</svg>
