<svg width="17" height="16" viewBox="0 0 17 16" fill="none" xmlns="http://www.w3.org/2000/svg">
<g clip-path="url(#clip0_1_637)">
<g clip-path="url(#clip1_1_637)">
<path d="M14.5508 3.05335C14.2164 2.71773 13.819 2.45144 13.3814 2.26974C12.9438 2.08804 12.4746 1.99451 12.0008 1.99451C11.527 1.99451 11.0579 2.08804 10.6203 2.26974C10.1827 2.45144 9.78528 2.71773 9.45083 3.05335L8.9375 3.57335L8.42416 3.05335C8.08971 2.71773 7.6923 2.45144 7.25471 2.26974C6.81712 2.08804 6.34797 1.99451 5.87416 1.99451C5.40035 1.99451 4.9312 2.08804 4.49362 2.26974C4.05603 2.45144 3.65862 2.71773 3.32416 3.05335C1.91083 4.46668 1.82416 6.85335 3.60416 8.66668L8.9375 14L14.2708 8.66668C16.0508 6.85335 15.9642 4.46668 14.5508 3.05335Z" stroke="#878781" stroke-width="1.33333" stroke-linecap="round" stroke-linejoin="round"/>
</g>
</g>
<defs>
<clipPath id="clip0_1_637">
<rect width="16" height="16" fill="white" transform="translate(0.9375)"/>
</clipPath>
<clipPath id="clip1_1_637">
<rect width="16" height="16" fill="white" transform="translate(0.9375)"/>
</clipPath>
</defs>
</svg>
