<svg width="21" height="20" viewBox="0 0 21 20" fill="none" xmlns="http://www.w3.org/2000/svg">
<g clip-path="url(#clip0_1_1369)">
<path d="M17.8594 9.58333C17.8622 10.6832 17.6053 11.7682 17.1094 12.75C16.5214 13.9264 15.6175 14.916 14.4989 15.6077C13.3803 16.2995 12.0912 16.6662 10.776 16.6667C9.67615 16.6695 8.59114 16.4126 7.60937 15.9167L2.85938 17.5L4.44271 12.75C3.94682 11.7682 3.68984 10.6832 3.69271 9.58333C3.69322 8.26812 4.05988 6.97904 4.75164 5.86045C5.4434 4.74187 6.43292 3.83797 7.60937 3.24999C8.59114 2.7541 9.67615 2.49713 10.776 2.49999H11.1927C12.9297 2.59582 14.5702 3.32896 15.8003 4.55904C17.0304 5.78912 17.7635 7.4297 17.8594 9.16666V9.58333Z" stroke="#878781" stroke-width="1.25" stroke-linecap="round" stroke-linejoin="round"/>
</g>
<defs>
<clipPath id="clip0_1_1369">
<rect width="20" height="20" fill="white" transform="translate(0.359375)"/>
</clipPath>
</defs>
</svg>
