<svg width="16" height="17" viewBox="0 0 16 17" fill="none" xmlns="http://www.w3.org/2000/svg">
<g clip-path="url(#clip0_11_232)">
<path d="M13.6133 4.0221C13.2789 3.68648 12.8815 3.42019 12.4439 3.23849C12.0063 3.05679 11.5371 2.96326 11.0633 2.96326C10.5895 2.96326 10.1204 3.05679 9.68278 3.23849C9.2452 3.42019 8.84778 3.68648 8.51333 4.0221L8 4.5421L7.48666 4.0221C7.15221 3.68648 6.7548 3.42019 6.31721 3.23849C5.87962 3.05679 5.41047 2.96326 4.93666 2.96326C4.46285 2.96326 3.9937 3.05679 3.55612 3.23849C3.11853 3.42019 2.72112 3.68648 2.38666 4.0221C0.97333 5.43543 0.886663 7.8221 2.66666 9.63543L8 14.9688L13.3333 9.63543C15.1133 7.8221 15.0267 5.43543 13.6133 4.0221Z" stroke="#878781" stroke-width="1.33333" stroke-linecap="round" stroke-linejoin="round"/>
</g>
<defs>
<clipPath id="clip0_11_232">
<rect width="16" height="16" fill="white" transform="translate(0 0.96875)"/>
</clipPath>
</defs>
</svg>
