<svg width="17" height="17" viewBox="0 0 17 17" fill="none" xmlns="http://www.w3.org/2000/svg">
<g clip-path="url(#clip0_11_239)">
<path d="M14.75 8.63544C14.7523 9.51535 14.5467 10.3834 14.15 11.1688C13.6796 12.1099 12.9565 12.9016 12.0616 13.455C11.1668 14.0084 10.1355 14.3017 9.08333 14.3021C8.20342 14.3044 7.33541 14.0988 6.55 13.7021L2.75 14.9688L4.01667 11.1688C3.61995 10.3834 3.41437 9.51535 3.41667 8.63544C3.41707 7.58327 3.71041 6.552 4.26381 5.65714C4.81722 4.76227 5.60884 4.03915 6.55 3.56877C7.33541 3.17206 8.20342 2.96647 9.08333 2.96877H9.41667C10.8062 3.04543 12.1187 3.63194 13.1028 4.61601C14.0868 5.60007 14.6733 6.91254 14.75 8.3021V8.63544Z" stroke="#878781" stroke-width="1.33333" stroke-linecap="round" stroke-linejoin="round"/>
</g>
<defs>
<clipPath id="clip0_11_239">
<rect width="16" height="16" fill="white" transform="translate(0.75 0.96875)"/>
</clipPath>
</defs>
</svg>
